<svg style="" width="24" height="24" viewBox="0 0 24 24" fill="none" xmlns="http://www.w3.org/2000/svg" data-v-2d54b8fa=""><path d="M21.5287 15.9299C21.3687 15.6599 20.9187 15.2399 19.7987 15.4399C19.1787 15.5499 18.5487 15.5999 17.9187 15.5699C15.5887 15.4699 13.4787 14.3999 12.0087 12.7499C10.7087 11.2999 9.90873 9.40987 9.89873 7.36987C9.89873 6.22987 10.1187 5.12987 10.5687 4.08987C11.0087 3.07987 10.6987 2.54987 10.4787 2.32987C10.2487 2.09987 9.70873 1.77987 8.64873 2.21987C4.55873 3.93987 2.02873 8.03987 2.32873 12.4299C2.62873 16.5599 5.52873 20.0899 9.36873 21.4199C10.2887 21.7399 11.2587 21.9299 12.2587 21.9699C12.4187 21.9799 12.5787 21.9899 12.7387 21.9899C16.0887 21.9899 19.2287 20.4099 21.2087 17.7199C21.8787 16.7899 21.6987 16.1999 21.5287 15.9299Z" fill="#050A41" fill-opacity="0.2" data-v-2d54b8fa=""></path></svg>