<svg width="30" height="30" viewBox="0 0 30 30" fill="none" xmlns="http://www.w3.org/2000/svg">
<mask id="mask0_619_393" style="mask-type:luminance" maskUnits="userSpaceOnUse" x="0" y="0" width="30" height="30">
<path d="M30 0H0V30H30V0Z" fill="white"/>
</mask>
<g mask="url(#mask0_619_393)">
<path d="M14.3921 16.0168L13.5966 13.6162L12.801 16.0168C12.7885 16.0548 12.7759 16.0932 12.7633 16.1318C12.6111 16.5963 12.4464 17.099 12.0739 17.4715C11.7014 17.844 11.1989 18.0086 10.7344 18.1607C10.6958 18.1733 10.6574 18.186 10.6194 18.1986L8.21875 18.9941L10.6194 19.7896C10.6574 19.8022 10.6958 19.8147 10.7344 19.8275C11.1989 19.9796 11.7014 20.1442 12.0739 20.5167C12.4464 20.8892 12.6111 21.3918 12.7633 21.8562C12.7759 21.8948 12.7885 21.9332 12.801 21.9713L13.5966 24.372L14.3921 21.9713C14.4048 21.9332 14.4173 21.8948 14.43 21.8562C14.5821 21.3918 14.7468 20.8892 15.1193 20.5167C15.4918 20.1442 15.9944 19.9796 16.4588 19.8275C16.4974 19.8147 16.5358 19.8022 16.5738 19.7896L18.9744 18.9941L16.5738 18.1986C16.5358 18.186 16.4974 18.1733 16.4588 18.1607C15.9944 18.0086 15.4918 17.844 15.1193 17.4715C14.7468 17.099 14.5821 16.5963 14.43 16.1318C14.4173 16.0932 14.4048 16.0548 14.3921 16.0168Z" fill="#F6F6F7" stroke="#F6F6F7" stroke-width="1.375" stroke-linejoin="round"/>
<path d="M21.4825 10.9962C21.3418 10.8555 21.2308 10.6962 21.1388 10.5273C21.0469 10.6962 20.9358 10.8555 20.795 10.9962C20.6543 11.137 20.495 11.2481 20.3262 11.34C20.495 11.4319 20.6543 11.543 20.795 11.6837C20.9358 11.8245 21.0469 11.9838 21.1388 12.1526C21.2308 11.9838 21.3418 11.8245 21.4825 11.6837C21.6233 11.543 21.7827 11.4319 21.9514 11.34C21.7827 11.2481 21.6233 11.137 21.4825 10.9962Z" stroke="#F6F6F7" stroke-linejoin="round"/>
<mask id="mask1_619_393" style="mask-type:luminance" maskUnits="userSpaceOnUse" x="13" y="2" width="6" height="6">
<path d="M16.3748 3.35696C16.277 3.06186 16.2282 2.91432 16.1382 2.91406C16.1379 2.91406 16.1384 2.91406 16.1382 2.91406C16.0482 2.91432 15.9985 3.06186 15.9008 3.35696C15.7074 3.94031 15.6108 4.23199 15.402 4.44119C15.4014 4.44182 15.4008 4.44246 15.4002 4.4431C15.1909 4.65184 14.8993 4.7485 14.3159 4.94181C14.0208 5.0396 13.8733 5.0885 13.873 5.17847C13.873 5.17823 13.873 5.17873 13.873 5.17847C13.8733 5.26845 14.0208 5.31809 14.3159 5.41587C14.8993 5.60919 15.1909 5.70585 15.4002 5.91459C15.4008 5.91522 15.4014 5.91586 15.402 5.9165C15.6108 6.1257 15.7074 6.41737 15.9008 7.00072C15.9985 7.29582 16.0474 7.44336 16.1374 7.44362C16.1372 7.44362 16.1377 7.44362 16.1374 7.44362C16.2274 7.44336 16.277 7.29582 16.3748 7.00072C16.5682 6.41737 16.6648 6.1257 16.8735 5.9165C16.8742 5.91586 16.8748 5.91522 16.8754 5.91459C17.0847 5.70585 17.3763 5.60919 17.9597 5.41587C18.2548 5.31809 18.4023 5.26919 18.4025 5.17921C18.4025 5.17896 18.4025 5.17946 18.4025 5.17921C18.4023 5.08924 18.2548 5.0396 17.9597 4.94181C17.3763 4.7485 17.0847 4.65184 16.8754 4.4431C16.8748 4.44246 16.8742 4.44182 16.8735 4.44119C16.6648 4.23199 16.5682 3.94031 16.3748 3.35696Z" fill="white"/>
</mask>
<g mask="url(#mask1_619_393)">
<path d="M17.37 6.72163C16.9656 6.58767 16.1478 6.36581 15.5511 5.77036L18.1998 3.11584C18.1453 3.06141 18.0913 3.02116 18.0495 2.99477C18.0122 2.97136 17.9961 2.96626 18.022 2.97744C18.0496 2.98942 18.1003 3.00946 18.1942 3.04236C18.2883 3.07539 18.3992 3.11219 18.5495 3.16199L17.37 6.72163ZM18.1547 2.76717C18.2045 2.91744 18.2413 3.02832 18.2743 3.12252C18.3072 3.21632 18.3272 3.26708 18.3392 3.29477C18.3505 3.32063 18.3453 3.30448 18.322 3.26726C18.2955 3.22529 18.2552 3.17136 18.2008 3.11679L15.5463 5.76558C14.9508 5.16884 14.729 4.35104 14.5951 3.94677L18.1547 2.76717ZM15.5511 5.77036C15.5495 5.76877 15.548 5.76718 15.5463 5.76558L18.2008 3.11679C18.2005 3.11648 18.2002 3.11617 18.1998 3.11584L15.5511 5.77036ZM17.37 3.63607C17.5741 3.56841 17.5397 3.57556 17.4753 3.60667C17.4395 3.62402 17.2426 3.71788 17.0388 3.92479C16.7896 4.17789 16.5292 4.60681 16.5276 5.17377L20.2776 5.18466C20.2758 5.79661 19.997 6.26538 19.7107 6.55602C19.4701 6.80046 19.2177 6.92952 19.1081 6.98257C18.8961 7.08507 18.6405 7.16558 18.5495 7.19571L17.37 3.63607ZM18.5495 3.16199C18.6405 3.19212 18.8961 3.27263 19.1081 3.37512C19.2177 3.42817 19.4701 3.55724 19.7107 3.80168C19.997 4.09232 20.2758 4.56109 20.2776 5.17304L16.5276 5.18393C16.5292 5.75089 16.7896 6.17981 17.0388 6.43291C17.2426 6.63982 17.4395 6.73368 17.4753 6.75103C17.5397 6.78214 17.5741 6.78929 17.37 6.72163L18.5495 3.16199ZM16.5276 5.17377C16.5276 5.17716 16.5276 5.18054 16.5276 5.18393L20.2776 5.17304C20.2776 5.17692 20.2776 5.18078 20.2776 5.18466L16.5276 5.17377ZM14.5951 6.41093C14.729 6.00666 14.9508 5.18886 15.5463 4.59212L18.2008 7.24089C18.2552 7.18634 18.2955 7.13241 18.322 7.09044C18.3453 7.05322 18.3505 7.03707 18.3392 7.06293C18.3272 7.09062 18.3072 7.14138 18.2743 7.23518C18.2413 7.32938 18.2045 7.44026 18.1547 7.59053L14.5951 6.41093ZM18.5495 7.19571C18.3992 7.24551 18.2883 7.28231 18.1942 7.31534C18.1003 7.34824 18.0496 7.36828 18.022 7.38026C17.9961 7.39144 18.0122 7.38634 18.0495 7.36293C18.0913 7.33654 18.1453 7.29629 18.1998 7.24186L15.5511 4.58734C16.1478 3.99189 16.9656 3.77003 17.37 3.63607L18.5495 7.19571ZM15.5463 4.59212C15.548 4.59052 15.5495 4.58893 15.5511 4.58734L18.1998 7.24186C18.2002 7.24153 18.2005 7.24122 18.2008 7.24089L15.5463 4.59212ZM17.6806 6.41093C17.7483 6.61512 17.7411 6.58071 17.71 6.51639C17.6927 6.4805 17.5988 6.28362 17.3918 6.07986C17.1388 5.83062 16.7098 5.57029 16.143 5.56864L16.132 9.31863C15.5201 9.31686 15.0513 9.03798 14.7607 8.75178C14.5162 8.51105 14.3872 8.25879 14.3341 8.14911C14.2316 7.93717 14.1511 7.68144 14.121 7.59053L17.6806 6.41093ZM18.1547 7.59053C18.1246 7.68144 18.0441 7.93717 17.9416 8.14911C17.8885 8.25879 17.7595 8.51105 17.515 8.75178C17.2243 9.03798 16.7556 9.31686 16.1436 9.31863L16.1327 5.56864C15.5658 5.57029 15.1368 5.83062 14.8837 6.07986C14.6768 6.28362 14.583 6.4805 14.5656 6.51639C14.5346 6.58071 14.5273 6.61512 14.5951 6.41093L18.1547 7.59053ZM16.143 5.56864C16.1395 5.56863 16.1361 5.56863 16.1327 5.56864L16.1436 9.31863C16.1397 9.31864 16.1358 9.31864 16.132 9.31863L16.143 5.56864ZM14.9057 3.63607C15.31 3.77003 16.1278 3.99189 16.7246 4.58734L14.0758 7.24186C14.1303 7.29629 14.1842 7.33654 14.2262 7.36293C14.2635 7.38634 14.2796 7.39144 14.2537 7.38026C14.2261 7.36828 14.1753 7.34824 14.0815 7.31534C13.9873 7.28231 13.8765 7.24551 13.7261 7.19571L14.9057 3.63607ZM14.121 7.59053C14.0712 7.44026 14.0343 7.32938 14.0013 7.23518C13.9685 7.14138 13.9483 7.09062 13.9365 7.06293C13.9252 7.03707 13.9303 7.05322 13.9537 7.09044C13.9801 7.13241 14.0203 7.18634 14.0748 7.24089L16.7293 4.59212C17.3248 5.18886 17.5466 6.00666 17.6806 6.41093L14.121 7.59053ZM16.7246 4.58734C16.7262 4.58893 16.7277 4.59052 16.7293 4.59212L14.0748 7.24089C14.0751 7.24122 14.0755 7.24153 14.0758 7.24186L16.7246 4.58734ZM14.9057 6.72163C14.7016 6.78929 14.736 6.78214 14.8003 6.75103C14.8362 6.73368 15.0331 6.63982 15.2368 6.43291C15.4861 6.17981 15.7463 5.75089 15.7481 5.18393L11.9981 5.17304C11.9998 4.56109 12.2787 4.09232 12.5648 3.80168C12.8056 3.55724 13.0578 3.42817 13.1676 3.37512C13.3795 3.27263 13.6352 3.19212 13.7261 3.16199L14.9057 6.72163ZM13.7261 7.19571C13.6352 7.16558 13.3795 7.08507 13.1676 6.98257C13.0578 6.92952 12.8056 6.80046 12.5648 6.55602C12.2787 6.26538 11.9998 5.79661 11.9981 5.18466L15.7481 5.17377C15.7463 4.60681 15.4861 4.17789 15.2368 3.92479C15.0331 3.71788 14.8362 3.62402 14.8003 3.60667C14.736 3.57556 14.7016 3.56841 14.9057 3.63607L13.7261 7.19571ZM15.7481 5.18393C15.7481 5.18054 15.7481 5.17716 15.7481 5.17377L11.9981 5.18466C11.998 5.18078 11.998 5.17692 11.9981 5.17304L15.7481 5.18393ZM17.6806 3.94677C17.5466 4.35104 17.3248 5.16884 16.7293 5.76558L14.0748 3.11679C14.0203 3.17136 13.9801 3.22529 13.9537 3.26726C13.9303 3.30448 13.9252 3.32063 13.9365 3.29477C13.9483 3.26708 13.9685 3.21632 14.0013 3.12252C14.0343 3.02832 14.0712 2.91744 14.121 2.76717L17.6806 3.94677ZM13.7261 3.16199C13.8765 3.11219 13.9873 3.07539 14.0815 3.04236C14.1753 3.00946 14.2261 2.98942 14.2537 2.97744C14.2796 2.96626 14.2635 2.97136 14.2262 2.99477C14.1842 3.02116 14.1303 3.06141 14.0758 3.11584L16.7246 5.77036C16.1278 6.36581 15.31 6.58767 14.9057 6.72163L13.7261 3.16199ZM16.7293 5.76558C16.7277 5.76718 16.7262 5.76877 16.7246 5.77036L14.0758 3.11584C14.0755 3.11617 14.0751 3.11648 14.0748 3.11679L16.7293 5.76558ZM14.121 2.76717C14.1511 2.67626 14.2316 2.42053 14.3341 2.20859C14.3872 2.09891 14.5162 1.84664 14.7607 1.60592C15.0513 1.31972 15.5201 1.04085 16.132 1.03907L16.143 4.78906C16.7098 4.78741 17.1388 4.52708 17.3918 4.27784C17.5988 4.07408 17.6927 3.87719 17.71 3.84131C17.7411 3.77699 17.7483 3.74258 17.6806 3.94677L14.121 2.76717ZM14.5951 3.94677C14.5273 3.74258 14.5346 3.77699 14.5656 3.84131C14.583 3.87719 14.6768 4.07408 14.8837 4.27784C15.1368 4.52708 15.5658 4.78741 16.1327 4.78906L16.1436 1.03907C16.7556 1.04085 17.2243 1.31972 17.515 1.60592C17.7595 1.84664 17.8885 2.09891 17.9416 2.20859C18.0441 2.42053 18.1246 2.67626 18.1547 2.76717L14.5951 3.94677ZM16.132 1.03907C16.1358 1.03906 16.1397 1.03906 16.1436 1.03907L16.1327 4.78906C16.1361 4.78907 16.1395 4.78907 16.143 4.78906L16.132 1.03907Z" fill="#F6F6F7"/>
</g>
</g>
</svg>
